Coordinates
version=1
nRows=24
nColumns=38
inDegrees=no

Units are S.I. units (second, meters, Newtons, ...)
If the header above contains a line with 'inDegrees', this indicates whether rotational values are in degrees (yes) or radians (no).

endheader
time	pelvis_tilt	pelvis_list	pelvis_rotation	pelvis_tx	pelvis_ty	pelvis_tz	hip_flexion_r	hip_adduction_r	hip_rotation_r	knee_angle_r	ankle_angle_r	subtalar_angle_r	mtp_angle_r	hip_flexion_l	hip_adduction_l	hip_rotation_l	knee_angle_l	ankle_angle_l	subtalar_angle_l	mtp_angle_l	lumbar_extension	lumbar_bending	lumbar_rotation	arm_flex_r	arm_add_r	arm_rot_r	elbow_flex_r	pro_sup_r	wrist_flex_r	wrist_dev_r	arm_flex_l	arm_add_l	arm_rot_l	elbow_flex_l	pro_sup_l	wrist_flex_l	wrist_dev_l
15	0.1152	1.44677	1.26203	0.624272	-0.745051	0.946176	0.528329	-0.0409815	0.000968958	0.650724	0.0974806	0	0	0.111502	0.0924525	-0.239344	0.167575	0.248311	0	0	0.022808	0.0965932	0.105099	-0.22347	-0.375641	0.00569155	2.14586	1.5708	0	0	0.0524592	-0.207251	0.174793	1.9672	0.735636	0	0
15.01	0.120561	1.44532	1.25967	0.624166	-0.744724	0.94616	0.528527	-0.0410968	-0.00105124	0.650285	0.0976432	0	0	0.112305	0.0915494	-0.237995	0.167585	0.248831	0	0	0.0228825	0.0976306	0.104231	-0.224255	-0.374775	0.00406598	2.14925	1.5708	0	0	0.0548939	-0.207941	0.182368	1.96522	0.814217	0	0
15.02	0.125372	1.44376	1.25805	0.624071	-0.744419	0.946165	0.528726	-0.0412419	-0.00317424	0.649564	0.097577	0	0	0.11316	0.0906269	-0.236848	0.167371	0.248747	0	0	0.0231573	0.0986827	0.103033	-0.224502	-0.37399	0.00346011	2.15227	1.5708	0	0	0.0576594	-0.207218	0.177981	1.96211	0.754916	0	0
15.03	0.127317	1.45419	1.27046	0.62397	-0.742692	0.946421	0.51628	-0.0484576	-0.00539066	0.656356	0.106871	0	0	0.0984061	0.0948839	-0.227866	0.163138	0.248716	0	0	0.0148019	0.0926901	0.0909687	-0.225546	-0.369458	0.00387456	2.15494	1.5708	0	0	0.0610527	-0.212509	0.185031	1.96346	0.814582	0	0
15.04	0.135726	1.45292	1.26591	0.623877	-0.742444	0.946535	0.51568	-0.0485567	-0.00834923	0.654951	0.106576	0	0	0.0986133	0.0936092	-0.22692	0.162118	0.248743	0	0	0.0148231	0.094088	0.0890823	-0.224602	-0.368955	0.00445446	2.15523	1.5708	0	0	0.0650244	-0.211707	0.182355	1.95868	0.771078	0	0
15.05	0.148964	1.45214	1.25716	0.623757	-0.742231	0.946715	0.514129	-0.0484681	-0.012096	0.653088	0.106001	0	0	0.0980236	0.0919376	-0.224932	0.160971	0.249006	0	0	0.0140708	0.0958492	0.0866745	-0.222964	-0.368894	0.00563984	2.15426	1.5708	0	0	0.0695666	-0.211755	0.187048	1.95417	0.814573	0	0
15.06	-0.121771	1.44267	1.54398	0.621199	-0.742483	0.943765	0.542126	-0.0954021	-0.0250205	0.679139	0.124515	0	0	0.103975	0.128346	-0.226931	0.129725	0.231383	0	0	0.0286386	0.0633352	0.0763041	-0.229656	-0.349565	-0.133363	2.26827	0.327072	0	0	0.0785722	-0.218117	0.193891	1.95681	0.811956	0	0
15.07	0.154504	1.44769	1.26036	0.623855	-0.741866	0.946914	0.515089	-0.0486718	-0.0171857	0.650305	0.105648	0	0	0.100858	0.0896346	-0.221275	0.159198	0.249253	0	0	0.0153477	0.0957395	0.0892612	-0.228807	-0.363843	-0.00395255	2.15568	1.5708	0	0	0.0848218	-0.211766	0.198884	1.94237	0.815099	0	0
15.08	0.161515	1.44635	1.25754	0.623833	-0.741797	0.947	0.51477	-0.0484914	-0.0196453	0.649111	0.105824	0	0	0.101561	0.0882573	-0.220031	0.158696	0.249814	0	0	0.0152041	0.0964839	0.0885677	-0.229023	-0.361717	-0.00783562	2.15624	1.5708	0	0	0.0912681	-0.211704	0.202385	1.93732	0.815597	0	0
15.09	0.167965	1.44476	1.25566	0.623812	-0.741731	0.947067	0.514564	-0.0484731	-0.0226251	0.647602	0.105849	0	0	0.102666	0.0868727	-0.218524	0.158356	0.250053	0	0	0.0154618	0.0971923	0.0870399	-0.228272	-0.360044	-0.0100672	2.15643	1.5708	0	0	0.0976147	-0.21186	0.205564	1.93246	0.81629	0	0
15.1	0.174094	1.44353	1.25539	0.623696	-0.741664	0.947166	0.513673	-0.0494255	-0.0274058	0.645783	0.106146	0	0	0.103251	0.0859172	-0.214978	0.157536	0.249609	0	0	0.0154418	0.0976864	0.0845714	-0.227396	-0.358194	-0.0126092	2.15658	1.5708	0	0	0.10515	-0.212287	0.211409	1.92611	0.829967	0	0
15.11	0.141794	1.44519	1.29606	0.623662	-0.741026	0.946915	0.508829	-0.0620879	-0.040786	0.640536	0.111721	0	0	0.101213	0.0911471	-0.210461	0.155694	0.249284	0	0	0.0157518	0.0906848	0.0793624	-0.227893	-0.35462	-0.0140677	2.15686	1.5708	0	0	0.111814	-0.214874	0.214857	1.92311	0.818917	0	0
15.12	0.140367	1.44337	1.30231	0.62374	-0.740987	0.947017	0.509244	-0.0630287	-0.0435617	0.639348	0.111525	0	0	0.102514	0.0908003	-0.20811	0.154516	0.248611	0	0	0.0169359	0.089905	0.0770751	-0.226561	-0.353351	-0.0145423	2.15569	1.5708	0	0	0.118229	-0.215181	0.217749	1.91689	0.819734	0	0
15.13	0.140406	1.44182	1.30699	0.623859	-0.741006	0.947142	0.50943	-0.0638009	-0.0463641	0.638141	0.111226	0	0	0.103596	0.0903107	-0.205543	0.153396	0.24756	0	0	0.0178072	0.0893259	0.0746483	-0.224175	-0.352068	-0.0143691	2.15391	1.5708	0	0	0.12485	-0.215367	0.220311	1.90986	0.820638	0	0
15.14	0.141185	1.44045	1.31069	0.624032	-0.741078	0.947261	0.509549	-0.0643252	-0.0488062	0.63701	0.110803	0	0	0.10475	0.0896941	-0.203069	0.152578	0.245878	0	0	0.0184804	0.0888825	0.07199	-0.220536	-0.350812	-0.0130435	2.15145	1.5708	0	0	0.131264	-0.215488	0.221934	1.90296	0.82162	0	0
15.15	0.172753	1.43528	1.28005	0.624333	-0.741762	0.947678	0.515541	-0.0529289	-0.040724	0.640081	0.104558	0	0	0.110321	0.0830472	-0.202991	0.153897	0.244382	0	0	0.020407	0.0949936	0.0720994	-0.21439	-0.351355	-0.0106923	2.1471	1.5708	0	0	0.137224	-0.2131	0.221745	1.89347	0.822849	0	0
15.16	0.176068	1.42273	1.27037	0.624544	-0.743337	0.947613	0.52745	-0.0469917	-0.044069	0.631203	0.095031	0	0	0.126165	0.0777288	-0.207164	0.156617	0.243003	0	0	0.0291007	0.101508	0.079286	-0.20789	-0.35398	-0.00867236	2.14303	1.5708	0	0	0.143151	-0.208083	0.220791	1.88185	0.824271	0	0
15.17	0.17112	1.43248	1.28902	0.624755	-0.742059	0.947793	0.516938	-0.0534608	-0.0434564	0.63878	0.103774	0	0	0.113652	0.0820398	-0.198865	0.15394	0.244746	0	0	0.022109	0.0942919	0.0678727	-0.205483	-0.348785	-0.00648542	2.14049	1.5708	0	0	0.150342	-0.212243	0.223879	1.87819	0.837024	0	0
15.18	0.170252	1.43165	1.29285	0.625014	-0.742256	0.947856	0.517172	-0.0535376	-0.0444584	0.638069	0.103452	0	0	0.114665	0.081632	-0.197637	0.153903	0.245896	0	0	0.0220188	0.0939428	0.0669601	-0.201198	-0.346964	-0.00489869	2.13749	1.5708	0	0	0.157831	-0.211687	0.224089	1.87027	0.828999	0	0
15.19	0.175674	1.42024	1.27989	0.625336	-0.743935	0.947835	0.52813	-0.0475412	-0.0482482	0.62909	0.0937637	0	0	0.129085	0.0763004	-0.202994	0.156222	0.245528	0	0	0.0289042	0.100642	0.0761752	-0.194576	-0.348801	-0.00323487	2.13362	1.5708	0	0	0.165768	-0.206852	0.223928	1.85693	0.830362	0	0
15.2	0.173501	1.43189	1.29544	0.625528	-0.742736	0.948137	0.515523	-0.0545325	-0.0488364	0.636272	0.102386	0	0	0.114237	0.0807993	-0.194732	0.152838	0.246557	0	0	0.0192297	0.0938134	0.0661071	-0.191868	-0.34299	-0.00167978	2.13164	1.5708	0	0	0.175641	-0.211426	0.228858	1.8509	0.837199	0	0
15.21	0.145105	1.43533	1.32992	0.625705	-0.742433	0.947929	0.509321	-0.0666744	-0.0615457	0.63119	0.10771	0	0	0.110681	0.0860236	-0.191615	0.151289	0.24673	0	0	0.017032	0.0876437	0.0632659	-0.18924	-0.338898	-0.000692815	2.13051	1.5708	0	0	0.18495	-0.213738	0.231975	1.84427	0.837091	0	0
15.22	0.181006	1.43131	1.29325	0.626101	-0.743343	0.948393	0.514194	-0.0547059	-0.0534561	0.63371	0.101552	0	0	0.115412	0.078702	-0.193574	0.153282	0.246762	0	0	0.016668	0.0952099	0.0671918	-0.183443	-0.338297	0.000595925	2.12735	1.5708	0	0	0.193947	-0.211262	0.232512	1.83248	0.834342	0	0
15.23	0.188586	1.43075	1.28814	0.626423	-0.743672	0.948527	0.513314	-0.054044	-0.0556639	0.631821	0.100573	0	0	0.116544	0.0768354	-0.193454	0.154396	0.246932	0	0	0.0156686	0.0967108	0.0689976	-0.180059	-0.335787	0.000591513	2.12522	1.5708	0	0	0.204314	-0.210974	0.236136	1.82112	0.837335	0	0
